<svg width="92" height="76" viewBox="0 0 92 76" fill="none" xmlns="http://www.w3.org/2000/svg">
<path d="M3 75V22C4.65703 20.8205 7.40925 20.4436 9 19.5C10.9884 18.3205 17.5173 15.4487 20.5 12.5C23.4827 9.55131 29.3468 6.59031 32.3295 5.41083C35.3121 4.23136 40.7803 3.64162 44.2601 4.23136C47.7399 4.8211 52.026 8.96157 56.5 12.5C60.974 16.0384 70.026 17 74.5 17C78.0792 17 85.8516 12.1624 89 10V75H3Z" fill="#F6F7FB" stroke="#F6F7FB" stroke-linecap="square"/>
<path d="M3.5 21C7.33333 19.5 15.5 14.5 23 10C31.9216 4.64703 41.5 1.00001 49 5.50001C56.5 10 57.5 14.4118 66.5 16C73 17.1471 79 16.5 82.5 14.5C86 12.5 87.3333 10.6667 88 10" stroke="#3F51B5" stroke-width="5" stroke-linecap="square"/>
</svg>